<svg xmlns="http://www.w3.org/2000/svg" xmlns:xlink="http://www.w3.org/1999/xlink" width="2000" zoomAndPan="magnify" viewBox="0 0 1500 1499.999933" height="2000" preserveAspectRatio="xMidYMid meet" version="1.0"><defs><clipPath id="7f89ab9c9c"><path d="M 691 529 L 1273 529 L 1273 965 L 691 965 Z M 691 529 " clip-rule="nonzero"/></clipPath><clipPath id="17219522ce"><path d="M 611.519531 655.175781 L 1298.574219 503.960938 L 1400.457031 966.882812 L 713.402344 1118.09375 Z M 611.519531 655.175781 " clip-rule="nonzero"/></clipPath><clipPath id="c9ab1e5e25"><path d="M 611.519531 655.175781 L 1298.574219 503.960938 L 1400.457031 966.882812 L 713.402344 1118.09375 Z M 611.519531 655.175781 " clip-rule="nonzero"/></clipPath><clipPath id="9f93c76579"><path d="M 1253 549 L 1277 549 L 1277 613 L 1253 613 Z M 1253 549 " clip-rule="nonzero"/></clipPath><clipPath id="dbfe0eef17"><path d="M 611.519531 655.175781 L 1298.574219 503.960938 L 1400.457031 966.882812 L 713.402344 1118.09375 Z M 611.519531 655.175781 " clip-rule="nonzero"/></clipPath><clipPath id="29fe3514e2"><path d="M 611.519531 655.175781 L 1298.574219 503.960938 L 1400.457031 966.882812 L 713.402344 1118.09375 Z M 611.519531 655.175781 " clip-rule="nonzero"/></clipPath><clipPath id="a1f56abcfe"><path d="M 1261 544 L 1281 544 L 1281 591 L 1261 591 Z M 1261 544 " clip-rule="nonzero"/></clipPath><clipPath id="c2cfc45bd1"><path d="M 611.519531 655.175781 L 1298.574219 503.960938 L 1400.457031 966.882812 L 713.402344 1118.09375 Z M 611.519531 655.175781 " clip-rule="nonzero"/></clipPath><clipPath id="a8fcd711ac"><path d="M 611.519531 655.175781 L 1298.574219 503.960938 L 1400.457031 966.882812 L 713.402344 1118.09375 Z M 611.519531 655.175781 " clip-rule="nonzero"/></clipPath><clipPath id="bb318b55ff"><path d="M 1238 514 L 1258 514 L 1258 536 L 1238 536 Z M 1238 514 " clip-rule="nonzero"/></clipPath><clipPath id="89fd46b069"><path d="M 611.519531 655.175781 L 1298.574219 503.960938 L 1400.457031 966.882812 L 713.402344 1118.09375 Z M 611.519531 655.175781 " clip-rule="nonzero"/></clipPath><clipPath id="60c3d4c440"><path d="M 611.519531 655.175781 L 1298.574219 503.960938 L 1400.457031 966.882812 L 713.402344 1118.09375 Z M 611.519531 655.175781 " clip-rule="nonzero"/></clipPath><clipPath id="a5160c6801"><path d="M 1220 516 L 1250 516 L 1250 540 L 1220 540 Z M 1220 516 " clip-rule="nonzero"/></clipPath><clipPath id="494d2ce5e0"><path d="M 611.519531 655.175781 L 1298.574219 503.960938 L 1400.457031 966.882812 L 713.402344 1118.09375 Z M 611.519531 655.175781 " clip-rule="nonzero"/></clipPath><clipPath id="8f83f5a893"><path d="M 611.519531 655.175781 L 1298.574219 503.960938 L 1400.457031 966.882812 L 713.402344 1118.09375 Z M 611.519531 655.175781 " clip-rule="nonzero"/></clipPath></defs><path fill="#ffffff" d="M 879.25 577.269531 C 523.730469 431.5 296.363281 950.460938 636.441406 1164.835938 C 418.542969 1071.902344 351.882812 745.5 569.386719 589.398438 C 289.382812 596.542969 200.03125 941.535156 286.699219 1160.496094 C 55.808594 724.011719 508.8125 301.980469 975.171875 599.585938 C 886.609375 475.914062 741.722656 395.308594 578.007812 395.308594 C 374.289062 395.308594 199.722656 520.097656 126.570312 697.394531 C 128.65625 672.976562 132.183594 648.519531 137.242188 624.078125 C 143.105469 595.679688 151.042969 567.355469 161.085938 539.28125 C 277.503906 213.976562 635.597656 44.632812 960.917969 161.066406 C 1286.21875 277.488281 1455.566406 635.578125 1339.128906 960.898438 C 1323.457031 1004.722656 1303.371094 1045.714844 1279.597656 1083.546875 C 909.988281 1207.074219 686.722656 1032.308594 686.722656 1032.308594 C 834.90625 1245.871094 1168.308594 1159.328125 1240.691406 1138.578125 C 1044.582031 1233.4375 709.308594 1209.105469 620.121094 977.257812 C 544.464844 780.539062 676.195312 523.625 879.269531 577.253906 Z M 1376.328125 974.21875 C 1500.109375 628.34375 1320.070312 247.628906 974.199219 123.851562 C 628.328125 0.0703125 247.613281 180.109375 123.832031 525.980469 C 0.0546875 871.855469 180.089844 1252.566406 525.960938 1376.347656 C 871.835938 1500.125 1252.550781 1320.089844 1376.328125 974.21875 Z M 1376.328125 974.21875 " fill-opacity="1" fill-rule="evenodd"/><g clip-path="url(#7f89ab9c9c)"><g clip-path="url(#17219522ce)"><g clip-path="url(#c9ab1e5e25)"><path fill="#ffffff" d="M 1201.878906 854.117188 C 1081.429688 1037.464844 1101.253906 857.128906 1105.964844 864.746094 C 1109.527344 870.507812 1055.457031 900.972656 1025.015625 907.953125 C 948.21875 925.5625 928.558594 914.792969 879.347656 905.976562 C 852.371094 901.140625 814.949219 1017.535156 694.371094 933.554688 C 669.625 916.320312 815.855469 833.710938 827.003906 858.023438 C 837.074219 879.992188 776.523438 908.125 717.179688 884.117188 C 709.808594 881.136719 760.628906 849.675781 795.125 844.8125 C 834.097656 839.320312 834.117188 848.558594 837.828125 839.808594 C 871.152344 761.285156 991.523438 706.15625 1075.050781 706.292969 C 1163.78125 706.4375 1125.445312 574.4375 1191.15625 547.386719 C 1270.085938 514.890625 1301.492188 521.257812 1241.585938 617.433594 C 1185.695312 701.273438 1248.578125 783.039062 1201.878906 854.121094 Z M 1201.878906 854.117188 " fill-opacity="1" fill-rule="nonzero"/></g></g></g><g clip-path="url(#9f93c76579)"><g clip-path="url(#dbfe0eef17)"><g clip-path="url(#29fe3514e2)"><path stroke-linecap="butt" transform="matrix(0.606144, -0.133404, 0.133404, 0.606144, 633.369771, 664.723051)" fill="none" stroke-linejoin="miter" d="M 1014.299806 131.986763 L 1020.011859 40.560172 L 1028.588506 120.56067 " stroke="#000000" stroke-width="1" stroke-opacity="1" stroke-miterlimit="4"/></g></g></g><g clip-path="url(#a1f56abcfe)"><g clip-path="url(#c2cfc45bd1)"><g clip-path="url(#a8fcd711ac)"><path stroke-linecap="butt" transform="matrix(0.606144, -0.133404, 0.133404, 0.606144, 633.369771, 664.723051)" fill="none" stroke-linejoin="miter" d="M 1034.299225 34.849991 L 1040.013751 100.564835 " stroke="#000000" stroke-width="1" stroke-opacity="1" stroke-miterlimit="4"/></g></g></g><g clip-path="url(#bb318b55ff)"><g clip-path="url(#89fd46b069)"><g clip-path="url(#60c3d4c440)"><path stroke-linecap="butt" transform="matrix(0.606144, -0.133404, 0.133404, 0.606144, 633.369771, 664.723051)" fill="none" stroke-linejoin="miter" d="M 1022.897304 6.279318 L 1008.61082 -19.43333 " stroke="#000000" stroke-width="1" stroke-opacity="1" stroke-miterlimit="4"/></g></g></g><g clip-path="url(#a5160c6801)"><g clip-path="url(#494d2ce5e0)"><g clip-path="url(#8f83f5a893)"><path stroke-linecap="butt" transform="matrix(0.606144, -0.133404, 0.133404, 0.606144, 633.369771, 664.723051)" fill="none" stroke-linejoin="miter" d="M 985.712001 -22.294842 L 1008.56727 9.138116 L 977.137861 -10.861269 " stroke="#000000" stroke-width="1" stroke-opacity="1" stroke-miterlimit="4"/></g></g></g></svg>